<svg xmlns="http://www.w3.org/2000/svg" width="20" height="20" fill="none" viewBox="0 0 20 20"><path fill="#212121" d="M13 17H14.5C15.8807 17 17 15.8807 17 14.5V13H13V17Z"/><path fill="#212121" d="M13 12V8H17V12H13Z"/><path fill="#212121" d="M12 12H8V8H12V12Z"/><path fill="#212121" d="M8 13H12V17H8V13Z"/><path fill="#212121" d="M7 12V8H3V12H7Z"/><path fill="#212121" d="M3 13H7V17H5.5C4.11929 17 3 15.8807 3 14.5V13Z"/><path fill="#212121" d="M13 7H17V5.5C17 4.11929 15.8807 3 14.5 3H13V7Z"/><path fill="#212121" d="M12 3V7H8V3H12Z"/><path fill="#212121" d="M7 3V7H3V5.5C3 4.11929 4.11929 3 5.5 3H7Z"/></svg>